HIERARCHY
ROOT Hips
{
	OFFSET -0.001795 -0.223333 0.028219
	CHANNELS 6 Xposition Yposition Zposition Zrotation Yrotation Xrotation 
	JOINT LeftUpLeg
	{
		OFFSET 0.069520 -0.091406 -0.006815
		CHANNELS 3 Zrotation Yrotation Xrotation
		JOINT LeftLeg
		{
			OFFSET 0.034277 -0.375199 -0.004496
			CHANNELS 3 Zrotation Yrotation Xrotation
			JOINT LeftFoot
			{
				OFFSET -0.013596 -0.397961 -0.043693
				CHANNELS 3 Zrotation Yrotation Xrotation
				JOINT LeftToe
				{
					OFFSET 0.026358 -0.055791 0.119288
					CHANNELS 3 Zrotation Yrotation Xrotation
					End Site
					{
						OFFSET 0.000000 0.000000 0.000000
					}
				}
			}
		}
	}
	JOINT RightUpLeg
	{
		OFFSET -0.067670 -0.090522 -0.004320
		CHANNELS 3 Zrotation Yrotation Xrotation
		JOINT RightLeg
		{
			OFFSET -0.038290 -0.382569 -0.008850
			CHANNELS 3 Zrotation Yrotation Xrotation
			JOINT RightFoot
			{
				OFFSET 0.015774 -0.398415 -0.042312
				CHANNELS 3 Zrotation Yrotation Xrotation
				JOINT RightToe
				{
					OFFSET -0.025372 -0.048144 0.123348
					CHANNELS 3 Zrotation Yrotation Xrotation
					End Site
					{
						OFFSET 0.000000 0.000000 0.000000
					}
				}
			}
		}
	}
	JOINT Spine
	{
		OFFSET -0.002533 0.108963 -0.026696
		CHANNELS 3 Zrotation Yrotation Xrotation
		JOINT Spine1
		{
			OFFSET 0.005487 0.135180 0.001092
			CHANNELS 3 Zrotation Yrotation Xrotation
			JOINT Spine2
			{
				OFFSET 0.001457 0.052922 0.025425
				CHANNELS 3 Zrotation Yrotation Xrotation
				JOINT Neck
				{
					OFFSET -0.002778 0.213870 -0.042857
					CHANNELS 3 Zrotation Yrotation Xrotation
					JOINT Head
					{
						OFFSET 0.005152 0.064970 0.051349
						CHANNELS 3 Zrotation Yrotation Xrotation
						End Site
						{
							OFFSET 0.000000 0.000000 0.000000
						}
					}
				}
				JOINT LeftShoulder
				{
					OFFSET 0.078845 0.121749 -0.034090
					CHANNELS 3 Zrotation Yrotation Xrotation
					JOINT LeftArm
					{
						OFFSET 0.090977 0.030469 -0.008868
						CHANNELS 3 Zrotation Yrotation Xrotation
						JOINT LeftForeArm
						{
							OFFSET 0.259612 -0.012772 -0.027456
							CHANNELS 3 Zrotation Yrotation Xrotation
							JOINT LeftHand
							{
								OFFSET 0.249234 0.008986 -0.001171
								CHANNELS 3 Zrotation Yrotation Xrotation
								End Site
								{
									OFFSET 0.000000 0.000000 0.000000
								}
							}
						}
					}
				}
				JOINT RightShoulder
				{
					OFFSET -0.081759 0.118833 -0.038615
					CHANNELS 3 Zrotation Yrotation Xrotation
					JOINT RightArm
					{
						OFFSET -0.096012 0.032551 -0.009143
						CHANNELS 3 Zrotation Yrotation Xrotation
						JOINT RightForeArm
						{
							OFFSET -0.253742 -0.013329 -0.021401
							CHANNELS 3 Zrotation Yrotation Xrotation
							JOINT RightHand
							{
								OFFSET -0.255298 0.007772 -0.005559
								CHANNELS 3 Zrotation Yrotation Xrotation
								End Site
								{
									OFFSET 0.000000 0.000000 0.000000
								}
							}
						}
					}
				}
			}
		}
	}
}
MOTION
Frames: 5
Frame Time: 0.050000
-0.034989 0.948453 -0.072461 4.981781 -11.376641 9.729971 -0.514530 -1.237047 -14.660869 0.555770 -0.140797 2.452188 1.166579 5.297787 12.986551 0.000000 0.000000 0.000000 -6.239192 1.009442 -11.254786 -5.153322 -0.074074 -6.489898 -0.227990 -8.290253 15.411514 0.000000 0.000000 0.000000 9.354403 -0.764903 3.795637 -4.311086 2.000981 -1.007469 -3.497764 15.100348 3.485342 18.152007 -9.394188 -15.328022 0.000000 0.000000 0.000000 -3.886027 -18.816131 5.889826 -38.940941 -24.923662 3.200548 -103.741908 -73.443949 86.283933 0.000000 0.000000 0.000000 -5.705149 17.792547 5.767810 26.774614 29.786731 3.474395 -0.269886 69.025210 5.700729 0.000000 0.000000 0.000000 
-0.035304 0.948625 -0.073613 5.005266 -10.379474 9.480764 -0.497476 -1.243951 -14.571601 0.589921 -0.148354 2.481135 0.661445 4.598020 12.960372 0.000000 0.000000 0.000000 -6.157751 0.956250 -10.694225 -5.233551 -0.082516 -6.698942 -0.667450 -8.943110 15.590115 0.000000 0.000000 0.000000 9.055573 -0.736817 3.705156 -3.948172 1.853989 -0.593050 -3.633044 14.826816 3.199214 18.166226 -9.441036 -15.103784 0.000000 0.000000 0.000000 -3.884201 -18.319100 5.670974 -38.058696 -25.148167 3.193731 -110.125047 -72.756241 92.003451 0.000000 0.000000 0.000000 -4.264088 17.495171 5.949143 26.787067 30.641288 3.652221 -3.930343 67.271577 3.103109 0.000000 0.000000 0.000000 
-0.035600 0.948798 -0.074793 4.900246 -9.980828 9.274323 -0.364136 -1.242030 -14.666694 0.626030 -0.165909 2.887565 0.477235 4.340333 12.914742 0.000000 0.000000 0.000000 -5.976236 0.918698 -10.178781 -5.256325 -0.112824 -7.149668 -0.784250 -9.155276 15.837519 0.000000 0.000000 0.000000 8.859734 -0.719906 3.679152 -3.733992 1.756664 -0.523639 -3.570878 15.065721 3.297165 18.011548 -9.461711 -14.662147 0.000000 0.000000 0.000000 -3.708772 -17.743001 5.422965 -37.229382 -25.342641 3.140240 -118.380805 -72.842795 100.816347 0.000000 0.000000 0.000000 -3.179962 17.123519 6.033905 27.291630 31.026352 3.808750 -7.946312 65.762910 0.554244 0.000000 0.000000 0.000000 
-0.035661 0.948832 -0.076066 4.863586 -9.236762 9.109640 -0.216796 -1.246789 -14.803001 0.504387 -0.157645 3.182743 0.117925 3.839666 12.855819 0.000000 0.000000 0.000000 -5.924519 0.880622 -9.751079 -5.208758 -0.130451 -7.406713 -1.109319 -9.639488 16.028836 0.000000 0.000000 0.000000 8.748384 -0.728850 3.801646 -3.773195 1.788653 -0.186337 -3.469970 14.938230 2.991766 17.865658 -9.556247 -13.980883 0.000000 0.000000 0.000000 -3.279019 -17.478269 5.318247 -36.512380 -25.592867 3.128677 -127.671163 -72.591092 110.972368 0.000000 0.000000 0.000000 -2.103382 16.885590 6.175476 27.805974 31.026629 3.892056 -10.993751 65.493320 -1.299462 0.000000 0.000000 0.000000 
-0.035688 0.949096 -0.077359 4.919205 -8.570417 8.810489 -0.174538 -1.245902 -14.702966 0.370329 -0.142611 3.302498 -0.231027 3.368770 12.900355 0.000000 0.000000 0.000000 -6.023673 0.839291 -9.289191 -5.072555 -0.140560 -7.523262 -1.404580 -10.070742 16.187580 0.000000 0.000000 0.000000 8.510077 -0.735573 4.022278 -3.518486 1.683295 0.225577 -3.600172 15.038583 2.641538 17.903530 -9.659114 -13.621024 0.000000 0.000000 0.000000 -3.191408 -17.198133 5.170264 -36.063623 -25.788633 3.146259 -132.621783 -72.498768 116.403797 0.000000 0.000000 0.000000 -0.980210 16.693251 6.358213 28.261935 30.673188 3.867489 -14.186099 66.160640 -3.185774 0.000000 0.000000 0.000000 
